<?xml version="1.0" encoding="UTF-8" standalone="no" ?>
<!DOCTYPE svg PUBLIC "-//W3C//DTD SVG 1.1//EN" "http://www.w3.org/Graphics/SVG/1.1/DTD/svg11.dtd">
<svg xmlns="http://www.w3.org/2000/svg" xmlns:xlink="http://www.w3.org/1999/xlink" version="1.1" width="1280" height="1024" viewBox="0 0 1280 1024" xml:space="preserve">
<desc>Created with Fabric.js 4.4.0</desc>
<defs>
</defs>
<g transform="matrix(1 0 0 1 640 512)" id="background-logo"  >
<rect style="stroke: none; stroke-width: 0; stroke-dasharray: none; stroke-linecap: butt; stroke-dashoffset: 0; stroke-linejoin: miter; stroke-miterlimit: 4; fill: rgb(255,255,255); fill-opacity: 0; fill-rule: nonzero; opacity: 1;"  paint-order="stroke"  x="-640" y="-512" rx="0" ry="0" width="1280" height="1024" />
</g>
<g transform="matrix(1.409545237539257 0 0 1.4095452375392574 261.0043749999999 512)" id="logo-logo"  >
<g style=""  paint-order="stroke"   >
		<g transform="matrix(0.916091999117941 0 0 0.916091999117941 -0.66715449089196 6.183620994046095)"  >
<path style="stroke: none; stroke-width: 1; stroke-dasharray: none; stroke-linecap: butt; stroke-dashoffset: 0; stroke-linejoin: miter; stroke-miterlimit: 4; fill: rgb(41,86,90); fill-rule: nonzero; opacity: 1;"  paint-order="stroke"  transform=" translate(-359.85, -353.25)" d="M 469.35 353.25 C 469.35 366.77 466.90000000000003 379.72 462.40000000000003 391.68 C 446.85 433.2 406.8 462.75 359.85 462.75 C 358.96000000000004 462.75 358.08000000000004 462.74 357.19 462.71 C 357.18 462.71 357.18 462.71 357.18 462.71 C 344.23 462.40999999999997 331.84000000000003 459.84999999999997 320.39 455.41999999999996 C 303.5 448.9 288.64 438.30999999999995 277.01 424.85999999999996 C 271.27 418.24999999999994 266.33 410.92999999999995 262.32 403.05999999999995 C 262.32 403.04999999999995 262.31 403.04999999999995 262.31 403.04999999999995 C 262.3 403.03999999999996 262.3 403.03 262.3 403.03 C 257.09000000000003 392.85999999999996 253.43 381.76 251.63000000000002 370.04999999999995 C 250.79000000000002 364.56999999999994 250.35000000000002 358.96 250.35000000000002 353.24999999999994 C 250.35000000000002 352.05999999999995 250.37000000000003 350.87999999999994 250.42000000000002 349.69999999999993 C 250.72000000000003 339.86999999999995 252.33 330.36999999999995 255.07000000000002 321.35999999999996 C 263.83000000000004 292.52 284.18 268.71999999999997 310.70000000000005 255.37999999999994 C 315.09000000000003 253.16999999999993 319.65000000000003 251.23999999999995 324.36000000000007 249.62999999999994 C 333.12000000000006 246.62999999999994 342.3900000000001 244.70999999999995 352.00000000000006 244.02999999999994 C 354.59000000000003 243.83999999999995 357.21000000000004 243.74999999999994 359.8500000000001 243.74999999999994 C 362.5900000000001 243.74999999999994 365.30000000000007 243.84999999999994 367.99000000000007 244.04999999999995 C 372.32000000000005 244.36999999999995 376.5900000000001 244.93999999999994 380.77000000000004 245.75999999999996 L 380.78000000000003 245.75999999999996 C 387.31 247.00999999999996 393.62 248.84999999999997 399.68 251.22999999999996 C 401.79 252.04999999999995 403.87 252.92999999999995 405.91 253.88999999999996 C 415.84000000000003 258.48999999999995 424.96000000000004 264.54999999999995 433.01000000000005 271.78 C 455.32 291.82 469.35 320.9 469.35 353.25 z" stroke-linecap="round" />
</g>
		<g transform="matrix(0.916091999117941 0 0 0.916091999117941 0 -0.013741379986782931)"  >
<path style="stroke: none; stroke-width: 1; stroke-dasharray: none; stroke-linecap: butt; stroke-dashoffset: 0; stroke-linejoin: miter; stroke-miterlimit: 4; fill: rgb(92,172,180); fill-rule: nonzero; opacity: 1;"  paint-order="stroke"  transform=" translate(-360.5782614535815, -346.48499999999996)" d="M 469 361.92 C 469.22 359.06 469.35 356.17 469.35 353.25 C 469.35 320.9 455.32000000000005 291.82 433.01 271.78 C 426.32 265.77 418.89 260.59 410.87 256.35999999999996 C 410.89 255.79999999999995 410.9 255.23999999999995 410.9 254.68999999999997 C 410.89 242.94999999999996 408.79999999999995 237.83999999999997 405.98999999999995 235.34999999999997 C 405.99999999999994 235.22999999999996 406.03 235.11999999999998 406.03 234.99999999999997 C 406.03 232.37999999999997 403.9 230.24999999999997 401.28 230.24999999999997 C 399.57 230.24999999999997 398.08 231.16999999999996 397.23999999999995 232.52999999999997 C 387.71999999999997 232.59999999999997 376.61999999999995 240.99999999999997 372.41999999999996 244.47999999999996 C 370.94999999999993 244.30999999999997 369.46999999999997 244.15999999999997 367.98999999999995 244.04999999999995 C 365.29999999999995 243.84999999999997 362.59 243.74999999999994 359.84999999999997 243.74999999999994 C 357.21 243.74999999999994 354.59 243.83999999999995 351.99999999999994 244.02999999999994 C 342.38999999999993 244.70999999999995 333.11999999999995 246.62999999999994 324.35999999999996 249.62999999999994 C 319.65 251.23999999999995 315.09 253.16999999999993 310.69999999999993 255.37999999999994 C 294.91999999999996 263.31999999999994 281.3299999999999 274.9599999999999 271.05999999999995 289.15999999999997 C 267.72999999999996 290.52 257.47999999999996 295.59 251.29999999999995 308.52 C 250.81999999999996 308.35999999999996 250.31999999999996 308.25 249.77999999999994 308.25 C 247.15999999999994 308.25 245.02999999999994 310.38 245.02999999999994 313 C 245.02999999999994 315.03 246.30999999999995 316.75 248.09999999999994 317.43 C 243.09999999999994 336.6 248.26999999999992 351.53000000000003 250.40999999999994 356.51 C 250.53999999999994 361.09999999999997 250.94999999999993 365.62 251.62999999999994 370.05 C 266.5199999999999 376.53000000000003 302.05999999999995 384.31 342.65999999999997 339 C 375.23999999999995 302.63 376.66999999999996 273.86 370.57 251.93 C 375.53 253.1 380.53 254.71 385.54 256.82 L 385.55 256.82 C 394.57 281.6 398.75 322.76 359.97 369.84 C 315.6 423.71999999999997 280.56000000000006 415.65999999999997 262.32000000000005 403.05999999999995 C 264.13000000000005 406.60999999999996 266.13000000000005 410.03 268.31000000000006 413.3399999999999 C 253.24000000000007 421.93999999999994 248.94000000000005 431.0299999999999 249.87000000000006 437.1599999999999 C 248.20000000000007 437.88999999999993 247.03000000000006 439.5599999999999 247.03000000000006 441.50999999999993 C 247.03000000000006 444.12999999999994 249.16000000000005 446.25999999999993 251.78000000000006 446.25999999999993 C 252.55000000000007 446.25999999999993 253.26000000000005 446.05999999999995 253.90000000000006 445.73999999999995 C 257.64000000000004 450.0799999999999 265.36000000000007 455.19999999999993 281.89000000000004 458.34 C 304.29 462.59 324.66 460.47999999999996 332.63000000000005 459.33 C 340.50000000000006 461.34999999999997 348.72 462.52 357.18000000000006 462.71999999999997 C 357.18000000000006 462.71999999999997 357.18000000000006 462.71999999999997 357.19000000000005 462.71999999999997 C 372.78000000000003 457.2 392.9800000000001 446.78999999999996 410.22 427.4 C 419.77000000000004 427.88 447.57000000000005 427.82 464.61 412.59 C 465.32 413.01 466.14 413.27 467.02000000000004 413.27 C 469.64000000000004 413.27 471.77000000000004 411.14 471.77000000000004 408.52 C 471.77000000000004 407.41999999999996 471.38000000000005 406.41999999999996 470.75000000000006 405.60999999999996 C 482.15 388.55 472.4 368.02 469 361.92 z M 328.04 334.46 C 283.86 378.38 259.67 360.97999999999996 250.43 349.71 C 248.78 343.44 246.65 331.03999999999996 250.51000000000002 317.69 C 252.78000000000003 317.34 254.53000000000003 315.39 254.53000000000003 313.01 C 254.53000000000003 311.84 254.09000000000003 310.77 253.38000000000002 309.94 C 258.97 297.67 266.01000000000005 294.06 268.29 293.18 C 262.62 301.8 258.14000000000004 311.27 255.07000000000002 321.36 C 255.68000000000004 327.47 257.98 332.7 262.08000000000004 336.40000000000003 C 275.39000000000004 348.44000000000005 302.70000000000005 339.93 323.07000000000005 317.40000000000003 C 343.45000000000005 294.87 349.1700000000001 266.85 335.85 254.81000000000003 C 333.91 253.05000000000004 331.67 251.74000000000004 329.20000000000005 250.83000000000004 C 337.36000000000007 249.47000000000003 346.00000000000006 248.89000000000004 354.93000000000006 249.53000000000003 C 363.08 267.12 365.92 296.81 328.04 334.46 z M 380.78 245.76 L 380.77 245.76 C 379.26 245.45999999999998 377.74 245.20999999999998 376.21 244.98 C 380.4 241.81 389.04999999999995 235.98 396.58 235.51 C 396.83 237.89 398.83 239.76 401.28 239.76 C 402.59 239.76 403.77 239.23 404.63 238.37 C 407.43 241.73000000000002 408.31 247.87 408 254.91 C 407.3 254.57 406.61 254.22 405.91 253.89 C 403.87 252.92999999999998 401.79 252.04999999999998 399.68 251.23 C 393.62 248.85 387.31 247.01 380.78 245.76 z M 406.27 268.47 C 405.91999999999996 270.26000000000005 405.52 272.03000000000003 405.09 273.76000000000005 C 404.79999999999995 271.39000000000004 404.44 269.1 404.02 266.91 C 404.78 267.41 405.53 267.93 406.27 268.47 z M 320.39 455.42 C 322.25 456.14000000000004 324.15 456.79 326.06 457.41 C 313.24 458.28000000000003 269.46 459.97 255.84 443.94 C 256.27 443.23 256.53000000000003 442.4 256.53000000000003 441.51 C 256.53000000000003 439.13 254.77000000000004 437.17 252.48000000000002 436.83 C 251.25000000000003 426.33 265.69 417.63 269.71000000000004 415.41999999999996 C 271.98 418.69999999999993 274.41 421.85999999999996 277.02000000000004 424.85999999999996 C 294.57000000000005 427.98999999999995 333.32000000000005 426.85999999999996 373.38000000000005 372.77 C 400.36000000000007 336.36 406.94000000000005 304.97999999999996 405.74000000000007 281.09 C 406.7900000000001 277.94 407.9000000000001 274.23999999999995 408.83000000000004 270.34 C 410.59000000000003 271.66999999999996 412.34000000000003 273.08 414.09000000000003 274.56 C 414.96000000000004 275.3 415.82000000000005 276.04 416.66 276.79 C 428.49 306.63 440 355.36 415.21000000000004 399.96000000000004 C 389.95 445.37 349.14 455.02 320.39 455.42 z M 412.37 424.9 C 418.73 417.34 424.64 408.51 429.68 398.15999999999997 C 445.9 364.81999999999994 446.05 331.2 441.65000000000003 304.9 C 462.35 335.34999999999997 465.54 366.88 462.40000000000003 391.67999999999995 C 465.44000000000005 383.59999999999997 467.54 375.06999999999994 468.59000000000003 366.21999999999997 C 472.00000000000006 372.92999999999995 478.41 389.38 468.59000000000003 404.03999999999996 C 468.1 403.86999999999995 467.58000000000004 403.76 467.03000000000003 403.76 C 464.41 403.76 462.28000000000003 405.89 462.28000000000003 408.51 C 462.28000000000003 409.28 462.48 410 462.81 410.65 C 446.98 424.86 420.4 425.16 412.37 424.9 z" stroke-linecap="round" />
</g>
</g>
</g>
<g transform="matrix(1.9211538461538462 0 0 1.9211538461538462 789.5083401721566 544.0873516517394)" id="text-logo"  >
<g style=""  paint-order="stroke"   >
		<g transform="matrix(1 0 0 1 0 0)" id="text-logo-path-0"  >
<path style="stroke: none; stroke-width: 0; stroke-dasharray: none; stroke-linecap: butt; stroke-dashoffset: 0; stroke-linejoin: miter; stroke-miterlimit: 4; fill: rgb(0,0,0); fill-rule: nonzero; opacity: 1;"  paint-order="stroke"  transform=" translate(-182.37, 21.369999999999997)" d="M 42.66 -19.59 L 42.66 -19.59 L 42.66 -19.51 L 42.66 -4.82 Q 42.66 -0.95 41.16 2.49 Q 39.66 5.92 37.09 8.53 Q 34.52 11.14 31.09 12.64 Q 27.65 14.14 23.7 14.14 L 23.7 14.14 Q 19.2 14.14 15.4 12.17 L 15.4 12.17 Q 13.82 11.46 13.23 9.76 Q 12.64 8.06 13.51 6.48 L 13.51 6.48 Q 14.3 4.9 15.92 4.34 Q 17.54 3.79 19.2 4.5 L 19.2 4.5 Q 21.25 5.61 23.7 5.61 L 23.7 5.61 Q 27.57 5.61 30.41 3.2 Q 33.26 0.79 34.05 -2.84 L 34.05 -2.84 Q 31.92 -1.34 29.27 -0.51 Q 26.62 0.32 23.7 0.32 L 23.7 0.32 L 23.7 0.32 Q 19.75 0.32 16.27 -1.3 Q 12.8 -2.92 10.27 -5.69 L 10.27 -5.69 Q 7.74 -8.29 6.24 -11.85 Q 4.74 -15.4 4.74 -19.59 L 4.74 -19.59 Q 4.74 -23.7 6.24 -27.29 Q 7.74 -30.89 10.27 -33.65 L 10.27 -33.65 Q 12.8 -36.34 16.27 -37.92 Q 19.75 -39.5 23.7 -39.5 L 23.7 -39.5 Q 26.78 -39.5 29.47 -38.63 Q 32.15 -37.76 34.29 -36.18 L 34.29 -36.18 Q 34.6 -37.6 35.75 -38.55 Q 36.89 -39.5 38.47 -39.5 L 38.47 -39.5 Q 40.29 -39.5 41.48 -38.28 Q 42.66 -37.05 42.66 -35.31 L 42.66 -35.31 L 42.66 -19.59 Z M 31.21 -11.46 L 31.21 -11.46 Q 32.55 -12.8 33.38 -14.93 Q 34.21 -17.06 34.21 -19.59 L 34.21 -19.59 Q 34.21 -21.96 33.38 -24.09 Q 32.55 -26.23 31.21 -27.65 L 31.21 -27.65 Q 28.05 -31.05 23.7 -31.05 L 23.7 -31.05 Q 19.36 -31.05 16.43 -27.65 L 16.43 -27.65 Q 15.01 -26.23 14.14 -24.09 Q 13.27 -21.96 13.27 -19.59 L 13.27 -19.59 Q 13.27 -17.06 14.14 -14.93 Q 15.01 -12.8 16.43 -11.46 L 16.43 -11.46 Q 17.85 -9.88 19.75 -9.05 Q 21.65 -8.22 23.7 -8.22 L 23.7 -8.22 Q 28.12 -8.22 31.21 -11.46 Z M 98.12 -9.24 L 98.12 -9.24 Q 100.17 -8.61 100.88 -6.56 L 100.88 -6.56 Q 101.52 -4.82 100.69 -3.24 Q 99.86 -1.66 98.12 -1.03 L 98.12 -1.03 Q 97.88 -0.95 97.45 -0.87 Q 97.01 -0.79 96.38 -0.79 L 96.38 -0.79 L 96.3 -0.79 Q 95.67 -0.79 94.88 -0.95 Q 94.09 -1.11 93.22 -1.66 L 93.22 -1.66 Q 92.43 -2.13 91.8 -2.84 Q 91.17 -3.56 90.69 -4.42 L 90.69 -4.42 Q 89.82 -6.16 89.43 -8.37 Q 89.03 -10.59 89.03 -13.9 L 89.03 -13.9 Q 88.95 -15.96 88.09 -17.3 L 88.09 -17.3 Q 87.69 -17.93 87.06 -18.53 Q 86.43 -19.12 85.72 -19.59 L 85.72 -19.59 Q 84.45 -20.46 83.15 -20.9 Q 81.84 -21.33 81.29 -21.49 L 81.29 -21.49 L 71.97 -21.49 L 71.97 -4.34 Q 71.97 -2.53 70.67 -1.26 Q 69.36 0 67.55 0 L 67.55 0 Q 65.73 0 64.46 -1.26 Q 63.2 -2.53 63.2 -4.34 L 63.2 -4.34 L 63.2 -50.95 Q 63.2 -52.77 64.46 -54.04 Q 65.73 -55.3 67.55 -55.3 L 67.55 -55.3 L 67.62 -55.3 L 67.62 -55.3 L 81.69 -55.3 Q 85.24 -55.3 88.32 -53.96 Q 91.4 -52.61 93.69 -50.32 Q 95.99 -48.03 97.29 -44.95 Q 98.59 -41.87 98.59 -38.31 L 98.59 -38.31 Q 98.59 -34.37 96.93 -31.05 Q 95.27 -27.73 92.43 -25.36 L 92.43 -25.36 Q 94.09 -24.09 95.19 -22.44 L 95.19 -22.44 Q 96.38 -20.7 97.09 -18.57 Q 97.8 -16.43 97.8 -13.9 L 97.8 -13.9 Q 97.72 -12.09 97.84 -10.98 Q 97.96 -9.88 98.12 -9.24 Z M 71.97 -30.26 L 81.69 -30.26 Q 83.34 -30.26 84.85 -30.89 Q 86.35 -31.52 87.45 -32.63 Q 88.56 -33.73 89.19 -35.19 Q 89.82 -36.66 89.82 -38.31 L 89.82 -38.31 Q 89.82 -40.05 89.19 -41.55 Q 88.56 -43.05 87.45 -44.16 Q 86.35 -45.27 84.85 -45.9 Q 83.34 -46.53 81.69 -46.53 L 81.69 -46.53 L 71.97 -46.53 L 71.97 -30.26 Z M 153.1 -38.31 L 153.1 -38.31 Q 153.1 -34.84 151.76 -31.8 Q 150.42 -28.76 148.13 -26.46 Q 145.83 -24.17 142.75 -22.83 Q 139.67 -21.49 136.12 -21.49 L 136.12 -21.49 L 126.4 -21.49 L 126.4 -4.34 Q 126.4 -2.53 125.1 -1.26 Q 123.79 0 121.98 0 L 121.98 0 Q 120.16 0 118.9 -1.26 Q 117.63 -2.53 117.63 -4.34 L 117.63 -4.34 L 117.63 -50.95 Q 117.63 -52.77 118.9 -54.04 Q 120.16 -55.3 121.98 -55.3 L 121.98 -55.3 L 122.06 -55.3 L 122.06 -55.3 L 136.12 -55.3 Q 139.67 -55.3 142.75 -53.96 Q 145.83 -52.61 148.13 -50.32 Q 150.42 -48.03 151.76 -44.95 Q 153.1 -41.87 153.1 -38.31 Z M 136.12 -46.53 L 126.4 -46.53 L 126.4 -30.26 L 136.12 -30.26 Q 137.86 -30.26 139.32 -30.89 Q 140.78 -31.52 141.88 -32.63 Q 142.99 -33.73 143.66 -35.19 Q 144.33 -36.66 144.33 -38.31 L 144.33 -38.31 Q 144.25 -41.79 141.92 -44.16 Q 139.59 -46.53 136.12 -46.53 L 136.12 -46.53 Z M 166.53 -7.98 L 166.53 -7.98 Q 165.19 -9.09 165.03 -10.74 Q 164.87 -12.4 165.9 -13.75 L 165.9 -13.75 L 165.9 -13.75 Q 167.01 -15.09 168.66 -15.25 Q 170.32 -15.4 171.67 -14.3 L 171.67 -14.3 L 171.67 -14.3 Q 173.01 -13.27 174.71 -12.17 Q 176.41 -11.06 178.38 -10.15 Q 180.36 -9.24 182.49 -8.73 Q 184.62 -8.22 186.76 -8.22 L 186.76 -8.22 L 186.76 -8.22 Q 189.76 -8.22 192.29 -9.01 Q 194.81 -9.8 196.63 -11.14 L 196.63 -11.14 L 196.63 -11.14 Q 198.45 -12.48 199.24 -13.9 Q 200.03 -15.33 200.03 -16.83 L 200.03 -16.83 L 200.03 -16.83 Q 200.03 -18.17 199.32 -19.36 L 199.32 -19.36 L 199.32 -19.36 Q 198.92 -19.99 198.37 -20.54 Q 197.82 -21.09 196.95 -21.73 L 196.95 -21.73 L 196.95 -21.73 Q 193.31 -24.09 186.12 -25.44 L 186.12 -25.44 L 186.12 -25.44 L 185.97 -25.44 L 185.97 -25.44 Q 183.2 -25.99 180.63 -26.7 Q 178.07 -27.41 175.78 -28.52 L 175.78 -28.52 L 175.78 -28.52 Q 173.48 -29.63 171.63 -31.13 Q 169.77 -32.63 168.43 -34.68 L 168.43 -34.68 L 168.43 -34.68 Q 166.61 -37.6 166.61 -41.16 L 166.61 -41.16 L 166.61 -41.16 Q 166.61 -44.71 168.39 -47.68 Q 170.17 -50.64 172.93 -52.69 L 172.93 -52.69 L 172.93 -52.69 Q 175.7 -54.75 179.21 -55.81 Q 182.73 -56.88 186.6 -56.88 L 186.6 -56.88 L 186.6 -56.88 Q 189.44 -56.88 191.93 -56.25 Q 194.42 -55.62 196.55 -54.67 Q 198.69 -53.72 200.5 -52.61 Q 202.32 -51.51 203.82 -50.56 L 203.82 -50.56 L 203.82 -50.56 Q 205.16 -49.61 205.52 -47.95 Q 205.87 -46.29 204.93 -44.95 L 204.93 -44.95 L 204.93 -44.95 Q 204.06 -43.53 202.4 -43.17 Q 200.74 -42.82 199.32 -43.77 L 199.32 -43.77 L 199.32 -43.77 Q 196.31 -45.82 193.27 -47.32 Q 190.23 -48.82 186.6 -48.82 L 186.6 -48.82 L 186.6 -48.82 Q 183.91 -48.82 181.62 -48.07 Q 179.33 -47.32 177.75 -46.14 L 177.75 -46.14 L 177.75 -46.14 Q 176.17 -44.95 175.46 -43.69 Q 174.75 -42.42 174.75 -41.16 L 174.75 -41.16 L 174.75 -41.16 Q 174.75 -39.82 175.3 -38.95 L 175.3 -38.95 L 175.3 -38.95 Q 175.93 -37.92 177.43 -36.89 L 177.43 -36.89 L 177.43 -36.89 Q 179.01 -35.79 181.54 -34.92 Q 184.07 -34.05 187.31 -33.42 L 187.31 -33.42 L 187.31 -33.42 L 187.47 -33.42 L 187.47 -33.42 Q 190.47 -32.79 193.23 -32 Q 196 -31.21 198.37 -30.1 L 198.37 -30.1 L 198.37 -30.1 Q 200.82 -28.91 202.87 -27.33 Q 204.93 -25.75 206.27 -23.54 L 206.27 -23.54 L 206.27 -23.54 Q 207.14 -22.12 207.65 -20.38 Q 208.16 -18.64 208.16 -16.83 L 208.16 -16.83 L 208.16 -16.83 Q 208.16 -13.04 206.27 -9.88 Q 204.37 -6.71 201.37 -4.58 L 201.37 -4.58 L 201.37 -4.58 Q 198.45 -2.45 194.74 -1.26 Q 191.02 -0.08 186.76 -0.08 L 186.76 -0.08 L 186.76 -0.08 Q 183.6 -0.08 180.63 -0.83 Q 177.67 -1.58 175.1 -2.73 Q 172.54 -3.87 170.36 -5.25 Q 168.19 -6.64 166.53 -7.98 L 166.53 -7.98 Z M 239.92 0 L 239.92 0 Q 235.89 0 232.38 -1.58 Q 228.86 -3.16 226.26 -5.85 Q 223.65 -8.53 222.15 -12.13 Q 220.65 -15.72 220.65 -19.75 L 220.65 -19.75 Q 220.65 -23.78 222.15 -27.37 Q 223.65 -30.97 226.26 -33.65 Q 228.86 -36.34 232.38 -37.92 Q 235.89 -39.5 239.92 -39.5 L 239.92 -39.5 Q 243.79 -39.5 247.15 -38.12 Q 250.51 -36.73 253.08 -34.33 Q 255.64 -31.92 257.18 -28.56 Q 258.73 -25.2 258.96 -21.17 L 258.96 -21.17 L 258.96 -20.78 L 258.96 -20.78 L 258.96 -20.78 Q 258.96 -20.62 258.96 -20.42 Q 258.96 -20.22 258.88 -20.07 L 258.88 -20.07 Q 258.73 -18.64 257.58 -17.77 Q 256.43 -16.91 254.78 -16.91 L 254.78 -16.91 L 229.65 -16.91 Q 229.97 -15.56 230.6 -14.14 Q 231.23 -12.72 232.34 -11.69 L 232.34 -11.69 Q 233.6 -10.27 235.74 -9.28 Q 237.87 -8.29 239.92 -8.14 L 239.92 -8.14 Q 242.06 -7.98 244.35 -8.49 Q 246.64 -9.01 248.14 -10.11 L 248.14 -10.11 Q 248.77 -10.74 249.64 -11.06 Q 250.51 -11.38 251.34 -11.38 Q 252.17 -11.38 252.92 -11.1 Q 253.67 -10.82 254.06 -10.35 L 254.06 -10.35 Q 254.85 -9.48 255.13 -7.98 Q 255.41 -6.48 254.06 -5.21 L 254.06 -5.21 Q 248.38 0 239.92 0 Z M 239.92 -32 L 239.92 -32 Q 237.4 -31.92 235.5 -31.05 Q 233.6 -30.18 232.3 -28.91 Q 231 -27.65 230.25 -26.23 Q 229.5 -24.81 229.26 -23.62 L 229.26 -23.62 L 251.62 -23.62 Q 251.3 -24.81 250.43 -26.19 Q 249.56 -27.57 248.06 -28.8 Q 246.56 -30.02 244.54 -30.89 Q 242.53 -31.76 239.92 -32 Z M 291.98 0 L 291.98 0 Q 287.95 0 284.44 -1.58 Q 280.92 -3.16 278.32 -5.85 Q 275.71 -8.53 274.21 -12.13 Q 272.71 -15.72 272.71 -19.75 L 272.71 -19.75 Q 272.71 -23.78 274.21 -27.37 Q 275.71 -30.97 278.32 -33.65 Q 280.92 -36.34 284.44 -37.92 Q 287.95 -39.5 291.98 -39.5 L 291.98 -39.5 Q 295.85 -39.5 299.21 -38.12 Q 302.57 -36.73 305.14 -34.33 Q 307.7 -31.92 309.25 -28.56 Q 310.79 -25.2 311.02 -21.17 L 311.02 -21.17 L 311.02 -20.78 L 311.02 -20.78 L 311.02 -20.78 Q 311.02 -20.62 311.02 -20.42 Q 311.02 -20.22 310.94 -20.07 L 310.94 -20.07 Q 310.79 -18.64 309.64 -17.77 Q 308.5 -16.91 306.84 -16.91 L 306.84 -16.91 L 281.71 -16.91 Q 282.03 -15.56 282.66 -14.14 Q 283.29 -12.72 284.4 -11.69 L 284.4 -11.69 Q 285.66 -10.27 287.8 -9.28 Q 289.93 -8.29 291.98 -8.14 L 291.98 -8.14 Q 294.12 -7.98 296.41 -8.49 Q 298.7 -9.01 300.2 -10.11 L 300.2 -10.11 Q 300.83 -10.74 301.7 -11.06 Q 302.57 -11.38 303.4 -11.38 Q 304.23 -11.38 304.98 -11.1 Q 305.73 -10.82 306.13 -10.35 L 306.13 -10.35 Q 306.91 -9.48 307.19 -7.98 Q 307.47 -6.48 306.13 -5.21 L 306.13 -5.21 Q 300.44 0 291.98 0 Z M 291.98 -32 L 291.98 -32 Q 289.46 -31.92 287.56 -31.05 Q 285.66 -30.18 284.36 -28.91 Q 283.06 -27.65 282.31 -26.23 Q 281.56 -24.81 281.32 -23.62 L 281.32 -23.62 L 303.68 -23.62 Q 303.36 -24.81 302.49 -26.19 Q 301.62 -27.57 300.12 -28.8 Q 298.62 -30.02 296.61 -30.89 Q 294.59 -31.76 291.98 -32 Z M 331.88 0 L 331.88 0 Q 330.06 0 328.8 -1.26 Q 327.53 -2.53 327.53 -4.34 L 327.53 -4.34 L 327.53 -50.95 Q 327.53 -52.77 328.8 -54.04 Q 330.06 -55.3 331.88 -55.3 L 331.88 -55.3 Q 333.7 -55.3 335 -54.04 Q 336.3 -52.77 336.3 -50.95 L 336.3 -50.95 L 336.3 -23.62 L 352.5 -39.82 Q 353.76 -41.08 355.58 -41.08 Q 357.4 -41.08 358.66 -39.82 L 358.66 -39.82 Q 360 -38.47 360 -36.7 Q 360 -34.92 358.66 -33.65 L 358.66 -33.65 L 346.81 -21.8 L 358.98 -7.19 Q 360.08 -5.77 359.92 -3.95 Q 359.77 -2.13 358.34 -1.03 L 358.34 -1.03 Q 357.24 0 355.58 0 L 355.58 0 Q 353.45 0 352.26 -1.58 L 352.26 -1.58 L 340.65 -15.64 L 336.3 -11.3 L 336.3 -4.34 Q 336.3 -2.53 335 -1.26 Q 333.7 0 331.88 0 Z" stroke-linecap="round" />
</g>
</g>
</g>
</svg>